<svg width="48" height="48" viewBox="0 0 48 48" fill="none" xmlns="http://www.w3.org/2000/svg">
<g clip-path="url(#clip0_449_936)">
<path d="M41.402 23.2121L40.3278 20.1602L28.7427 31.7458C27.6108 32.8799 26.1028 33.5035 24.5007 33.5035C22.8991 33.5035 21.3911 32.8799 20.2591 31.7458L11.7595 23.2461C10.6254 22.1142 10.0014 20.6062 10.0014 19.0045C10.0014 17.4024 10.6254 15.8944 11.7595 14.7626C12.8914 13.6288 14.3993 13.0048 16.001 13.0048C17.6031 13.0048 19.1111 13.6288 20.243 14.7626L24.5007 19.0184L35.9083 7.61123L35.1401 5.43128L34.7863 3.31546C34.5644 1.95944 33.6702 0.835535 32.4002 0.309345C31.1243 -0.220501 29.7006 -0.0564478 28.5826 0.74554L23.025 4.76916L17.4051 0.735321C16.2772 -0.0605725 14.8494 -0.21872 13.5813 0.31347C12.3216 0.841441 11.4355 1.96338 11.2135 3.31143L10.1256 10.0849L3.31184 11.2167C1.95807 11.4389 0.834159 12.3329 0.306188 13.6028C-0.221876 14.8768 -0.057823 16.3046 0.744071 17.4226L4.76601 22.9801L0.732071 28.5998C-0.0619478 29.7277 -0.221877 31.1577 0.310219 32.4236C0.840065 33.6835 1.95985 34.5694 3.30781 34.7917L10.0816 35.8815L11.2135 42.693C11.4336 44.045 12.3216 45.167 13.5813 45.6951C14.8513 46.2268 16.2812 46.0689 17.4193 45.2629L22.9771 41.2393L28.5826 45.2629C29.2686 45.7529 30.0665 46.0048 30.8766 46.0048C31.3903 46.0048 31.9063 45.9049 32.4002 45.6991C33.6723 45.171 34.5644 44.0472 34.7863 42.697L35.8761 35.9236L42.6876 34.7917C44.0396 34.5695 45.1597 33.6836 45.6897 32.4235C46.2218 31.1577 46.0635 29.7277 45.2575 28.5859L41.402 23.2121Z" fill="#FFC107"/>
<path d="M24.5009 29.5039C23.989 29.5039 23.4771 29.308 23.087 28.918L14.5874 20.4184C13.8055 19.6366 13.8055 18.3725 14.5874 17.5907C15.3696 16.8085 16.6333 16.8085 17.4154 17.5907L24.5009 24.6761L44.5857 4.59126C45.3679 3.80942 46.6317 3.80942 47.4138 4.59126C48.1956 5.37309 48.1956 6.63715 47.4138 7.41898L25.9148 28.9181C25.7293 29.104 25.5089 29.2515 25.2663 29.3521C25.0236 29.4526 24.7635 29.5042 24.5009 29.504V29.5039Z" fill="#607D8B"/>
</g>
<defs>
<clipPath id="clip0_449_936">
<rect width="48" height="48" fill="white"/>
</clipPath>
</defs>
</svg>
